<svg width="18" height="22" viewBox="0 0 18 22" fill="none" xmlns="http://www.w3.org/2000/svg">
<path d="M9 12.5C8.25832 12.5 7.5333 12.2801 6.91661 11.868C6.29993 11.456 5.81928 10.8703 5.53545 10.1851C5.25162 9.49984 5.17736 8.74584 5.32206 8.01841C5.46675 7.29098 5.8239 6.6228 6.34835 6.09835C6.8728 5.5739 7.54098 5.21675 8.26841 5.07206C8.99584 4.92736 9.74984 5.00162 10.4351 5.28545C11.1203 5.56928 11.706 6.04993 12.118 6.66661C12.5301 7.2833 12.75 8.00832 12.75 8.75C12.7488 9.7442 12.3533 10.6973 11.6503 11.4003C10.9473 12.1033 9.9942 12.4988 9 12.5ZM9 6.5C8.55499 6.5 8.11998 6.63196 7.74997 6.8792C7.37996 7.12643 7.09157 7.47783 6.92127 7.88896C6.75098 8.3001 6.70642 8.7525 6.79323 9.18896C6.88005 9.62541 7.09434 10.0263 7.40901 10.341C7.72368 10.6557 8.12459 10.87 8.56105 10.9568C8.99751 11.0436 9.44991 10.999 9.86104 10.8287C10.2722 10.6584 10.6236 10.37 10.8708 10C11.118 9.63002 11.25 9.19501 11.25 8.75C11.2494 8.15345 11.0122 7.5815 10.5903 7.15967C10.1685 6.73784 9.59656 6.5006 9 6.5Z" fill="#FFF9F4"/>
<path d="M9.00001 21.5L2.67301 14.0382C2.58509 13.9262 2.49809 13.8135 2.41201 13.7C1.33124 12.2763 0.747389 10.5374 0.750009 8.75C0.750009 6.56196 1.6192 4.46354 3.16638 2.91637C4.71355 1.36919 6.81197 0.5 9.00001 0.5C11.188 0.5 13.2865 1.36919 14.8336 2.91637C16.3808 4.46354 17.25 6.56196 17.25 8.75C17.2526 10.5366 16.669 12.2747 15.5888 13.6978L15.588 13.7C15.588 13.7 15.363 13.9955 15.3293 14.0353L9.00001 21.5ZM3.60901 12.7963C3.61051 12.7963 3.78451 13.0272 3.82426 13.0767L9.00001 19.181L14.1825 13.0685C14.2155 13.0272 14.391 12.7948 14.3918 12.794C15.2746 11.6308 15.7517 10.2103 15.75 8.75C15.75 6.95979 15.0388 5.2429 13.773 3.97703C12.5071 2.71116 10.7902 2 9.00001 2C7.2098 2 5.49291 2.71116 4.22704 3.97703C2.96117 5.2429 2.25001 6.95979 2.25001 8.75C2.24844 10.2112 2.72534 11.6326 3.60901 12.7963Z" fill="#FFF9F4"/>
</svg>
